<?xml version="1.0" encoding="UTF-8"?>
<svg version="1.1" xmlns="http://www.w3.org/2000/svg" width="512" height="308">
<path d="M0 0 C4.18555855 3.12042494 7.93524814 6.69374279 11.71728516 10.28027344 C13.04522947 11.43234796 14.37835509 12.57848503 15.71728516 13.71777344 C20.62953464 17.98579348 25.16051397 22.63946344 29.71728516 27.28027344 C30.74853516 26.47589844 31.77978516 25.67152344 32.84228516 24.84277344 C77.40059836 -8.20658627 137.44134098 -11.43557827 190.77587891 -3.90722656 C219.13320381 0.4735954 242.84845431 10.04817663 265.71728516 27.28027344 C266.17466064 26.81242432 266.63203613 26.3445752 267.10327148 25.86254883 C287.81263567 4.74268664 313.39653912 -19.40425592 344.83862305 -20.20458984 C345.74733154 -20.20958496 346.65604004 -20.21458008 347.59228516 -20.21972656 C348.87510376 -20.22915283 348.87510376 -20.22915283 350.18383789 -20.23876953 C364.11876461 -19.96128332 376.27954574 -13.82319269 386.29931641 -4.32910156 C400.65476783 11.16272647 404.57910939 27.07114373 403.88769531 47.56152344 C403.11551242 59.88104874 397.57600467 70.66227039 391.71728516 81.28027344 C390.95738281 82.67052734 390.95738281 82.67052734 390.18212891 84.08886719 C375.40036365 109.82313817 352.32539697 131.56126674 329.46728516 150.03027344 C328.77376953 150.59359375 328.08025391 151.15691406 327.36572266 151.73730469 C321.87848159 156.1838621 321.87848159 156.1838621 319.53466797 157.58569336 C317.46440203 159.19072398 317.46440203 159.19072398 317.14306641 161.99731445 C317.10568359 163.08197998 317.06830078 164.16664551 317.02978516 165.28417969 C316.97330811 166.49138672 316.91683105 167.69859375 316.85864258 168.94238281 C316.81199463 170.22951172 316.76534668 171.51664063 316.71728516 172.84277344 C315.36518146 198.46820785 309.60117443 223.62081069 290.71728516 242.28027344 C290.03021484 242.98925781 289.34314453 243.69824219 288.63525391 244.42871094 C277.77411173 254.9472939 263.80693233 259.6138868 249.02978516 261.03027344 C242.94329892 261.78116392 240.21858132 262.87903781 236.03759766 267.21386719 C217.31974201 283.88347264 185.12960917 288.37561178 161.13916016 288.48339844 C160.13250305 288.48909851 159.12584595 288.49479858 158.08868408 288.50067139 C155.96066321 288.5100825 153.83262801 288.51663982 151.70458984 288.52050781 C148.51844212 288.53011912 145.33296681 288.56114086 142.14697266 288.59277344 C125.70131268 288.67836459 109.61298479 287.3662171 93.71728516 282.90527344 C92.54842773 282.58610962 92.54842773 282.58610962 91.35595703 282.26049805 C79.85753377 279.02269639 66.45551528 274.56790946 58.21728516 265.59277344 C53.585824 261.23767519 48.11843462 261.10525323 42.06884766 260.33325195 C22.48470732 257.79210331 8.38781528 247.87240327 -4.12646484 233.10449219 C-15.70547763 217.24494009 -22.17628338 192.85990102 -21.06005859 173.50292969 C-20.52315929 164.96590002 -20.52315929 164.96590002 -23.73046875 157.31982422 C-27.51490343 153.54553275 -31.84294602 150.58285334 -36.29003906 147.64550781 C-39.00352335 145.78642865 -41.38001124 143.64629276 -43.78271484 141.40527344 C-46.49769089 138.90303805 -49.24146164 136.44989162 -52.03662109 134.03808594 C-62.99404144 124.46916702 -73.59718156 113.96512756 -82.28271484 102.28027344 C-82.9759082 101.35311523 -82.9759082 101.35311523 -83.68310547 100.40722656 C-100.33176703 77.98816883 -110.16826382 56.77418395 -108.28271484 28.28027344 C-105.80517199 13.32546658 -96.51787543 -0.71194603 -84.51318359 -9.82128906 C-55.84697958 -28.66480778 -26.01272566 -18.52410877 0 0 Z " fill="#FEFCFD" transform="translate(108.28271484375,19.7197265625)"/>
<path d="M0 0 C4.18555855 3.12042494 7.93524814 6.69374279 11.71728516 10.28027344 C13.04522947 11.43234796 14.37835509 12.57848503 15.71728516 13.71777344 C20.62953464 17.98579348 25.16051397 22.63946344 29.71728516 27.28027344 C30.74853516 26.47589844 31.77978516 25.67152344 32.84228516 24.84277344 C77.40059836 -8.20658627 137.44134098 -11.43557827 190.77587891 -3.90722656 C219.13320381 0.4735954 242.84845431 10.04817663 265.71728516 27.28027344 C266.17466064 26.81242432 266.63203613 26.3445752 267.10327148 25.86254883 C287.81263567 4.74268664 313.39653912 -19.40425592 344.83862305 -20.20458984 C345.74733154 -20.20958496 346.65604004 -20.21458008 347.59228516 -20.21972656 C348.87510376 -20.22915283 348.87510376 -20.22915283 350.18383789 -20.23876953 C364.11876461 -19.96128332 376.27954574 -13.82319269 386.29931641 -4.32910156 C400.65476783 11.16272647 404.57910939 27.07114373 403.88769531 47.56152344 C403.11551242 59.88104874 397.57600467 70.66227039 391.71728516 81.28027344 C390.95738281 82.67052734 390.95738281 82.67052734 390.18212891 84.08886719 C375.40036365 109.82313817 352.32539697 131.56126674 329.46728516 150.03027344 C328.77376953 150.59359375 328.08025391 151.15691406 327.36572266 151.73730469 C321.87848159 156.1838621 321.87848159 156.1838621 319.53466797 157.58569336 C317.46440203 159.19072398 317.46440203 159.19072398 317.14306641 161.99731445 C317.10568359 163.08197998 317.06830078 164.16664551 317.02978516 165.28417969 C316.97330811 166.49138672 316.91683105 167.69859375 316.85864258 168.94238281 C316.81199463 170.22951172 316.76534668 171.51664063 316.71728516 172.84277344 C315.36518146 198.46820785 309.60117443 223.62081069 290.71728516 242.28027344 C290.03021484 242.98925781 289.34314453 243.69824219 288.63525391 244.42871094 C277.77411173 254.9472939 263.80693233 259.6138868 249.02978516 261.03027344 C242.94329892 261.78116392 240.21858132 262.87903781 236.03759766 267.21386719 C217.31974201 283.88347264 185.12960917 288.37561178 161.13916016 288.48339844 C160.13250305 288.48909851 159.12584595 288.49479858 158.08868408 288.50067139 C155.96066321 288.5100825 153.83262801 288.51663982 151.70458984 288.52050781 C148.51844212 288.53011912 145.33296681 288.56114086 142.14697266 288.59277344 C125.70131268 288.67836459 109.61298479 287.3662171 93.71728516 282.90527344 C92.54842773 282.58610962 92.54842773 282.58610962 91.35595703 282.26049805 C79.85753377 279.02269639 66.45551528 274.56790946 58.21728516 265.59277344 C53.585824 261.23767519 48.11843462 261.10525323 42.06884766 260.33325195 C22.48470732 257.79210331 8.38781528 247.87240327 -4.12646484 233.10449219 C-15.70547763 217.24494009 -22.17628338 192.85990102 -21.06005859 173.50292969 C-20.52315929 164.96590002 -20.52315929 164.96590002 -23.73046875 157.31982422 C-27.51490343 153.54553275 -31.84294602 150.58285334 -36.29003906 147.64550781 C-39.00352335 145.78642865 -41.38001124 143.64629276 -43.78271484 141.40527344 C-46.49769089 138.90303805 -49.24146164 136.44989162 -52.03662109 134.03808594 C-62.99404144 124.46916702 -73.59718156 113.96512756 -82.28271484 102.28027344 C-82.9759082 101.35311523 -82.9759082 101.35311523 -83.68310547 100.40722656 C-100.33176703 77.98816883 -110.16826382 56.77418395 -108.28271484 28.28027344 C-105.80517199 13.32546658 -96.51787543 -0.71194603 -84.51318359 -9.82128906 C-55.84697958 -28.66480778 -26.01272566 -18.52410877 0 0 Z M-73.28271484 -1.71972656 C-73.28271484 -1.05972656 -73.28271484 -0.39972656 -73.28271484 0.28027344 C-74.00458984 0.50714844 -74.72646484 0.73402344 -75.47021484 0.96777344 C-78.84489766 2.54262542 -80.76301498 4.5616499 -83.28271484 7.28027344 C-83.88083984 7.81652344 -84.47896484 8.35277344 -85.09521484 8.90527344 C-86.60952478 10.35588407 -86.60952478 10.35588407 -86.28271484 13.28027344 C-87.27271484 13.61027344 -88.26271484 13.94027344 -89.28271484 14.28027344 C-90.71870102 16.72694277 -90.71870102 16.72694277 -91.90771484 19.65527344 C-92.33310547 20.63238281 -92.75849609 21.60949219 -93.19677734 22.61621094 C-95.28992573 27.75120087 -95.46591843 31.81523626 -95.47021484 37.28027344 C-95.48246094 38.10011719 -95.49470703 38.91996094 -95.50732422 39.76464844 C-95.50925781 40.55355469 -95.51119141 41.34246094 -95.51318359 42.15527344 C-95.51729248 42.87457031 -95.52140137 43.59386719 -95.52563477 44.33496094 C-95.38949392 46.60470595 -95.38949392 46.60470595 -93.28271484 49.28027344 C-92.37392578 48.68859375 -91.46513672 48.09691406 -90.52880859 47.48730469 C-81.7219844 41.89897228 -73.34735613 38.08086927 -63.28271484 35.28027344 C-62.65284668 35.10214111 -62.02297852 34.92400879 -61.37402344 34.74047852 C-39.69637526 29.9701812 -18.22851936 37.52356538 -0.12255859 48.84667969 C5.69559534 52.59554025 10.92976439 56.22063781 15.71728516 61.28027344 C16.37728516 61.94027344 17.03728516 62.60027344 17.71728516 63.28027344 C18.44724897 68.62549235 16.51502975 72.22412994 13.90478516 76.71777344 C9.26096674 84.92213255 5.9331375 93.32783977 2.87939453 102.22753906 C0.91174225 107.89781724 0.91174225 107.89781724 -0.34130859 110.36230469 C-3.04856158 115.87791139 -3.86043097 122.08507078 -4.84521484 128.09277344 C-6.1515673 136.01797836 -6.1515673 136.01797836 -7.28271484 138.28027344 C-7.52322795 141.16049215 -7.7089728 144.01975131 -7.84521484 146.90527344 C-7.88622314 147.76121094 -7.92723145 148.61714844 -7.96948242 149.49902344 C-8.47824707 160.85827389 -8.55163238 172.01963182 -7.40771484 183.34277344 C-7.32932373 184.12845703 -7.25093262 184.91414062 -7.17016602 185.72363281 C-6.64483174 190.42595377 -5.70749953 194.75018878 -4.28271484 199.28027344 C-3.93853516 200.44945312 -3.59435547 201.61863281 -3.23974609 202.82324219 C1.20590241 216.97952225 8.12313495 231.83585785 21.71728516 239.28027344 C22.37728516 239.28027344 23.03728516 239.28027344 23.71728516 239.28027344 C23.71728516 239.94027344 23.71728516 240.60027344 23.71728516 241.28027344 C33.37155704 245.56017062 41.35717135 248.16203319 51.90478516 248.59277344 C59.26922714 249.0292436 59.26922714 249.0292436 62.40478516 251.65527344 C63.16791016 252.52152344 63.93103516 253.38777344 64.71728516 254.28027344 C67.01627925 256.75611323 68.34652402 257.69910772 71.71728516 258.28027344 C71.71728516 258.94027344 71.71728516 259.60027344 71.71728516 260.28027344 C74.11232202 261.40699518 76.50827225 262.53169902 78.90478516 263.65527344 C79.57832031 263.97238281 80.25185547 264.28949219 80.94580078 264.61621094 C100.79024674 273.90921978 122.51227694 275.81324765 144.17407227 275.72631836 C147.38379637 275.71782895 150.59172047 275.74665924 153.80126953 275.77832031 C174.20274847 275.84781967 193.83018844 273.24397658 212.71728516 265.28027344 C214.34537109 264.60351562 214.34537109 264.60351562 216.00634766 263.91308594 C221.04892477 261.60679098 225.0258075 259.12632263 229.10473633 255.34399414 C235.14906601 249.75202197 239.10658777 248.36807913 247.27587891 248.32324219 C259.88660234 248.16578707 272.71098092 242.01271105 281.81494141 233.40917969 C289.04612508 225.31678728 294.00339453 216.4677837 297.71728516 206.28027344 C298.01248047 205.55066406 298.30767578 204.82105469 298.61181641 204.06933594 C307.32531338 182.34997895 306.33521972 150.75201168 300.71728516 128.28027344 C300.40478516 126.73860677 300.09228516 125.1969401 299.77978516 123.65527344 C298.97841055 120.08039139 297.84578041 116.77191146 296.49853516 113.37011719 C295.64024011 111.07417793 294.95601498 108.76105234 294.27978516 106.40527344 C292.75368684 101.21494948 290.82189509 96.26064808 288.71728516 91.28027344 C288.42080078 90.56355469 288.12431641 89.84683594 287.81884766 89.10839844 C285.33398624 83.28915034 282.28651083 77.86261762 279.10791016 72.39355469 C277.51378432 68.82468308 276.90858837 67.12158319 277.71728516 63.28027344 C281.78716694 57.76234746 287.67088508 53.92512883 293.34228516 50.21777344 C294.13352783 49.69828125 294.92477051 49.17878906 295.73999023 48.64355469 C302.16936787 44.49750134 308.52349397 40.9590958 315.71728516 38.28027344 C316.81427734 37.87035156 317.91126953 37.46042969 319.04150391 37.03808594 C337.62334552 31.10988564 358.04406456 32.80827939 375.40478516 41.46777344 C376.80277344 42.23154297 376.80277344 42.23154297 378.22900391 43.01074219 C380.43198929 44.13471432 382.30353774 44.81109068 384.71728516 45.28027344 C384.71728516 45.94027344 384.71728516 46.60027344 384.71728516 47.28027344 C386.36728516 47.94027344 388.01728516 48.60027344 389.71728516 49.28027344 C392.3221196 46.67543899 391.08656646 39.7156591 391.11328125 36.22192383 C390.99358798 27.27126096 388.70722303 20.76518024 383.71728516 13.28027344 C383.05728516 13.28027344 382.39728516 13.28027344 381.71728516 13.28027344 C381.49041016 12.55839844 381.26353516 11.83652344 381.02978516 11.09277344 C377.48159425 3.4895072 368.34781115 -2.48785454 360.71728516 -5.65722656 C349.33019444 -8.8933447 336.35361806 -7.54040973 325.71728516 -2.71972656 C324.80293701 -2.30980469 324.80293701 -2.30980469 323.87011719 -1.89160156 C319.72177417 -0.00796261 315.60213113 1.89173048 311.71728516 4.28027344 C311.38728516 5.27027344 311.05728516 6.26027344 310.71728516 7.28027344 C309.06728516 7.61027344 307.41728516 7.94027344 305.71728516 8.28027344 C305.71728516 8.94027344 305.71728516 9.60027344 305.71728516 10.28027344 C305.15525391 10.53550781 304.59322266 10.79074219 304.01416016 11.05371094 C296.99154293 14.80388408 291.05516497 20.69777055 285.60400391 26.42089844 C283.71728516 28.28027344 283.71728516 28.28027344 281.26025391 30.15917969 C277.56533485 33.24111678 275.01501148 37.04430367 272.19384766 40.91699219 C269.05147083 43.91563253 267.00579902 44.2153716 262.71728516 44.28027344 C260.40478516 42.40527344 260.40478516 42.40527344 259.19384766 40.99511719 C248.31260962 28.35791217 233.95748369 21.98399494 218.71728516 16.28027344 C217.93144043 15.9501123 217.1455957 15.61995117 216.3359375 15.27978516 C211.82869651 13.55941926 207.11978207 12.75334972 202.40478516 11.78027344 C201.41671875 11.56757813 200.42865234 11.35488281 199.41064453 11.13574219 C182.82134846 7.68008051 166.80007603 6.90904778 149.90478516 6.96777344 C148.28029449 6.97050766 148.28029449 6.97050766 146.62298584 6.97329712 C115.47450621 7.0616057 79.13777001 8.33375884 52.71728516 27.28027344 C51.80205078 27.89128906 50.88681641 28.50230469 49.94384766 29.13183594 C49.08533203 29.71707031 48.22681641 30.30230469 47.34228516 30.90527344 C46.46830078 31.49566406 45.59431641 32.08605469 44.69384766 32.69433594 C44.04158203 33.21769531 43.38931641 33.74105469 42.71728516 34.28027344 C42.71728516 34.94027344 42.71728516 35.60027344 42.71728516 36.28027344 C41.83169922 36.67666016 41.83169922 36.67666016 40.92822266 37.08105469 C38.02574286 38.65536794 36.00138537 40.80086398 33.69384766 43.13574219 C31.71728516 44.28027344 31.71728516 44.28027344 28.73291016 44.20996094 C25.19885609 43.12044686 24.13974208 42.07291181 21.84228516 39.21777344 C5.34338463 19.9369214 -18.05526775 -3.55546548 -44.6940918 -7.03466797 C-47.19073356 -7.19103384 -49.65636215 -7.2371172 -52.15771484 -7.21972656 C-53.46337402 -7.21875977 -53.46337402 -7.21875977 -54.79541016 -7.21777344 C-61.78242543 -7.05631427 -67.34216263 -5.53476009 -73.28271484 -1.71972656 Z " fill="#5465FC" transform="translate(108.28271484375,19.7197265625)"/>
<path d="M0 0 C1.17949219 -0.00322266 2.35898438 -0.00644531 3.57421875 -0.00976562 C12.35301605 0.04454639 18.60588535 1.48692296 26.6875 4.9375 C27.73808594 5.38351563 28.78867188 5.82953125 29.87109375 6.2890625 C30.65613281 6.62679687 31.44117188 6.96453125 32.25 7.3125 C32.25 7.9725 32.25 8.6325 32.25 9.3125 C34.23 9.9725 36.21 10.6325 38.25 11.3125 C38.25 11.9725 38.25 12.6325 38.25 13.3125 C38.98605469 13.56257813 39.72210938 13.81265625 40.48046875 14.0703125 C51.34326611 18.94248395 58.87662908 32.37868338 63.125 42.9375 C67.81350775 56.30842952 69.9725785 72.58294188 65.25 86.3125 C64.89679688 87.34890625 64.54359375 88.3853125 64.1796875 89.453125 C61.82978067 95.92645324 59.1250663 101.63403747 55.25 107.3125 C54.92 107.9725 54.59 108.6325 54.25 109.3125 C53.59 109.3125 52.93 109.3125 52.25 109.3125 C51.26 111.2925 51.26 111.2925 50.25 113.3125 C49.59 113.3125 48.93 113.3125 48.25 113.3125 C48.04375 113.869375 47.8375 114.42625 47.625 115 C45.67316968 118.28262371 43.30769006 120.01923246 40.25 122.3125 C39.59 122.3125 38.93 122.3125 38.25 122.3125 C38.25 122.9725 38.25 123.6325 38.25 124.3125 C36.27 124.9725 34.29 125.6325 32.25 126.3125 C32.25 126.9725 32.25 127.6325 32.25 128.3125 C14.78928193 136.27207058 -3.22656916 139.65754261 -21.75 133.3125 C-22.74515625 132.9721875 -23.7403125 132.631875 -24.765625 132.28125 C-32.32973647 129.41076667 -38.43986448 125.32671511 -44.75 120.3125 C-45.59304687 119.67570312 -46.43609375 119.03890625 -47.3046875 118.3828125 C-49.8873653 116.1962003 -51.85871648 113.91582877 -53.9375 111.25 C-54.94876953 109.96416016 -54.94876953 109.96416016 -55.98046875 108.65234375 C-59.75 103.66790839 -59.75 103.66790839 -59.75 100.3125 C-60.41 100.3125 -61.07 100.3125 -61.75 100.3125 C-62.35805872 98.68895235 -62.96117538 97.06355383 -63.5625 95.4375 C-63.89894531 94.53257812 -64.23539062 93.62765625 -64.58203125 92.6953125 C-64.96746094 91.57898438 -65.35289063 90.46265625 -65.75 89.3125 C-66.01167969 88.57596191 -66.27335937 87.83942383 -66.54296875 87.08056641 C-68.63815335 80.7688228 -69.22732897 75.06678917 -69.125 68.4375 C-69.11339844 67.4686084 -69.10179688 66.4997168 -69.08984375 65.50146484 C-68.68431327 47.74459713 -61.42351887 30.9259548 -48.75 18.3125 C-34.24213106 5.63572132 -19.15170069 -0.26511214 0 0 Z " fill="#FEFDFD" transform="translate(183.75,107.6875)"/>
<path d="M0 0 C1.19496094 -0.02449219 2.38992188 -0.04898438 3.62109375 -0.07421875 C15.43864041 -0.11262898 25.71117506 2.63890014 35.6875 9 C36.34427734 9.39445312 37.00105469 9.78890625 37.67773438 10.1953125 C39.28663073 11.18849982 40.83800796 12.27380791 42.375 13.375 C42.375 14.035 42.375 14.695 42.375 15.375 C42.931875 15.601875 43.48875 15.82875 44.0625 16.0625 C47.0615221 17.76464768 49.01999245 19.85177762 51.375 22.375 C52.303125 23.303125 53.23125 24.23125 54.1875 25.1875 C66.5803015 39.89191214 69.50137031 58.16986796 68.59960938 76.77685547 C67.88341277 85.06138183 64.93030447 92.90886062 61.375 100.375 C60.715 100.375 60.055 100.375 59.375 100.375 C59.21451172 101.24318359 59.21451172 101.24318359 59.05078125 102.12890625 C58.28195022 104.68426949 57.20212822 106.21626646 55.5625 108.3125 C55.01980469 109.00859375 54.47710937 109.7046875 53.91796875 110.421875 C53.40878906 111.06640625 52.89960938 111.7109375 52.375 112.375 C51.715 113.261875 51.055 114.14875 50.375 115.0625 C40.38316459 126.61555969 24.29597154 134.35965192 9.375 136.375 C-10.86855792 137.66399482 -29.04863103 133.05008809 -44.5625 119.5 C-46.96484375 117.2578125 -46.96484375 117.2578125 -48.625 115.375 C-48.625 114.715 -48.625 114.055 -48.625 113.375 C-49.945 112.715 -51.265 112.055 -52.625 111.375 C-52.625 110.715 -52.625 110.055 -52.625 109.375 C-53.285 109.375 -53.945 109.375 -54.625 109.375 C-65.07084042 92.23570844 -70.81509146 74.47047496 -66.94140625 54.21875 C-63.77794277 41.51239047 -58.30131945 31.14011248 -49.625 21.375 C-49.07070313 20.73820312 -48.51640625 20.10140625 -47.9453125 19.4453125 C-35.26043449 5.78934335 -18.0899122 0.01914276 0 0 Z " fill="#FEFDFD" transform="translate(328.625,107.625)"/>
<path d="M0 0 C-0.63981856 5.06776924 -2.89611557 9.25749191 -5.0625 13.8125 C-12.93116862 30.8668222 -18.42897338 48.58102057 -22 67 C-22.22429687 68.09828125 -22.44859375 69.1965625 -22.6796875 70.328125 C-23.13264948 72.5495002 -23.56920385 74.77421991 -24 77 C-33.18523385 72.89641173 -40.82383647 64.43665405 -48.14453125 57.6328125 C-50.66303899 55.31068635 -53.22307741 53.05461464 -55.8125 50.8125 C-59.23601458 47.78235155 -62.26408057 44.59283109 -65.20703125 41.09765625 C-66.43867725 39.65671093 -67.70978843 38.24886467 -69.01171875 36.87109375 C-79.03328524 26.23779789 -89.71633973 12.77015709 -95 -1 C-94.84303768 -3.57602862 -94.39429844 -4.57615758 -92.64453125 -6.45703125 C-61.06030925 -29.82531491 -29.29256961 -22.12523875 0 0 Z " fill="#030001" transform="translate(113,86)"/>
<path d="M0 0 C1.92578125 1.64453125 1.92578125 1.64453125 4.42578125 4.14453125 C3.83337293 8.82096665 1.84391967 12.54169324 -0.44921875 16.58203125 C-0.84560547 17.28215332 -1.24199219 17.98227539 -1.65039062 18.70361328 C-7.68548954 29.06854479 -15.41673262 38.10838733 -23.5234375 46.90625 C-25.44866421 49.00749744 -27.29500178 51.15772431 -29.13671875 53.33203125 C-31.9307869 56.53250931 -34.90929367 59.29289079 -38.1484375 62.03515625 C-40.69978179 64.2537165 -43.16138642 66.54956707 -45.6237793 68.86572266 C-62.93767003 85.14453125 -62.93767003 85.14453125 -66.57421875 85.14453125 C-66.6942627 84.52223633 -66.81430664 83.89994141 -66.93798828 83.25878906 C-71.62893165 59.20832685 -77.68950407 35.42192821 -89.4375 13.69921875 C-90.73520907 10.78271795 -90.67829684 10.04879867 -89.57421875 7.14453125 C-87.32925135 5.34737109 -85.17592062 3.80324565 -82.76171875 2.26953125 C-82.08101318 1.83044434 -81.40030762 1.39135742 -80.69897461 0.93896484 C-54.7608996 -15.54748574 -25.95813681 -18.7103414 0 0 Z " fill="#030001" transform="translate(489.57421875,77.85546875)"/>
<path d="M0 0 C1.17949219 -0.00322266 2.35898438 -0.00644531 3.57421875 -0.00976562 C12.35301605 0.04454639 18.60588535 1.48692296 26.6875 4.9375 C27.73808594 5.38351563 28.78867188 5.82953125 29.87109375 6.2890625 C30.65613281 6.62679687 31.44117188 6.96453125 32.25 7.3125 C32.25 7.9725 32.25 8.6325 32.25 9.3125 C34.23 9.9725 36.21 10.6325 38.25 11.3125 C38.25 11.9725 38.25 12.6325 38.25 13.3125 C38.98605469 13.56257813 39.72210938 13.81265625 40.48046875 14.0703125 C51.34326611 18.94248395 58.87662908 32.37868338 63.125 42.9375 C67.81350775 56.30842952 69.9725785 72.58294188 65.25 86.3125 C64.89679688 87.34890625 64.54359375 88.3853125 64.1796875 89.453125 C61.82978067 95.92645324 59.1250663 101.63403747 55.25 107.3125 C54.92 107.9725 54.59 108.6325 54.25 109.3125 C53.59 109.3125 52.93 109.3125 52.25 109.3125 C51.26 111.2925 51.26 111.2925 50.25 113.3125 C49.59 113.3125 48.93 113.3125 48.25 113.3125 C48.04375 113.869375 47.8375 114.42625 47.625 115 C45.67316968 118.28262371 43.30769006 120.01923246 40.25 122.3125 C39.59 122.3125 38.93 122.3125 38.25 122.3125 C38.25 122.9725 38.25 123.6325 38.25 124.3125 C36.27 124.9725 34.29 125.6325 32.25 126.3125 C32.25 126.9725 32.25 127.6325 32.25 128.3125 C14.78928193 136.27207058 -3.22656916 139.65754261 -21.75 133.3125 C-22.74515625 132.9721875 -23.7403125 132.631875 -24.765625 132.28125 C-32.32973647 129.41076667 -38.43986448 125.32671511 -44.75 120.3125 C-45.59304687 119.67570312 -46.43609375 119.03890625 -47.3046875 118.3828125 C-49.8873653 116.1962003 -51.85871648 113.91582877 -53.9375 111.25 C-54.94876953 109.96416016 -54.94876953 109.96416016 -55.98046875 108.65234375 C-59.75 103.66790839 -59.75 103.66790839 -59.75 100.3125 C-60.41 100.3125 -61.07 100.3125 -61.75 100.3125 C-62.35805872 98.68895235 -62.96117538 97.06355383 -63.5625 95.4375 C-63.89894531 94.53257812 -64.23539062 93.62765625 -64.58203125 92.6953125 C-64.96746094 91.57898438 -65.35289063 90.46265625 -65.75 89.3125 C-66.01167969 88.57596191 -66.27335937 87.83942383 -66.54296875 87.08056641 C-68.63815335 80.7688228 -69.22732897 75.06678917 -69.125 68.4375 C-69.11339844 67.4686084 -69.10179688 66.4997168 -69.08984375 65.50146484 C-68.68431327 47.74459713 -61.42351887 30.9259548 -48.75 18.3125 C-34.24213106 5.63572132 -19.15170069 -0.26511214 0 0 Z M-32.75 21.3125 C-33.74 21.8075 -33.74 21.8075 -34.75 22.3125 C-34.75 22.9725 -34.75 23.6325 -34.75 24.3125 C-35.32878906 24.55742187 -35.90757812 24.80234375 -36.50390625 25.0546875 C-46.71721553 30.7741407 -52.49822689 43.64859701 -55.75 54.3125 C-59.44132751 69.05320118 -56.28093254 83.56813215 -49 96.625 C-43.12527813 105.97486385 -43.12527813 105.97486385 -34.4765625 112.08984375 C-33.90679687 112.16332031 -33.33703125 112.23679687 -32.75 112.3125 C-32.75 112.9725 -32.75 113.6325 -32.75 114.3125 C-24.58619207 118.76981995 -17.18238541 122.59869786 -7.75 123.3125 C-6.61046875 123.4053125 -5.4709375 123.498125 -4.296875 123.59375 C9.46082864 124.16938614 22.01377549 120.32911403 33.25 112.3125 C34.796875 111.2296875 34.796875 111.2296875 36.375 110.125 C43.82072342 103.52298461 48.706549 94.47328223 52.25 85.3125 C52.61480469 84.44238281 52.97960937 83.57226562 53.35546875 82.67578125 C57.2016336 68.21487325 54.70445642 52.71005755 47.875 39.69140625 C46.49502831 37.22701663 46.49502831 37.22701663 44.25 34.3125 C43.59 34.3125 42.93 34.3125 42.25 34.3125 C41.85554688 33.44044922 41.85554688 33.44044922 41.453125 32.55078125 C35.82334939 22.07720519 23.64158124 16.83384087 12.8125 13.375 C-3.10559398 9.61720949 -19.03955978 12.83233883 -32.75 21.3125 Z " fill="#5965F8" transform="translate(183.75,107.6875)"/>
<path d="M0 0 C1.19496094 -0.02449219 2.38992188 -0.04898438 3.62109375 -0.07421875 C15.43864041 -0.11262898 25.71117506 2.63890014 35.6875 9 C36.34427734 9.39445312 37.00105469 9.78890625 37.67773438 10.1953125 C39.28663073 11.18849982 40.83800796 12.27380791 42.375 13.375 C42.375 14.035 42.375 14.695 42.375 15.375 C42.931875 15.601875 43.48875 15.82875 44.0625 16.0625 C47.0615221 17.76464768 49.01999245 19.85177762 51.375 22.375 C52.303125 23.303125 53.23125 24.23125 54.1875 25.1875 C66.5803015 39.89191214 69.50137031 58.16986796 68.59960938 76.77685547 C67.88341277 85.06138183 64.93030447 92.90886062 61.375 100.375 C60.715 100.375 60.055 100.375 59.375 100.375 C59.21451172 101.24318359 59.21451172 101.24318359 59.05078125 102.12890625 C58.28195022 104.68426949 57.20212822 106.21626646 55.5625 108.3125 C55.01980469 109.00859375 54.47710937 109.7046875 53.91796875 110.421875 C53.40878906 111.06640625 52.89960938 111.7109375 52.375 112.375 C51.715 113.261875 51.055 114.14875 50.375 115.0625 C40.38316459 126.61555969 24.29597154 134.35965192 9.375 136.375 C-10.86855792 137.66399482 -29.04863103 133.05008809 -44.5625 119.5 C-46.96484375 117.2578125 -46.96484375 117.2578125 -48.625 115.375 C-48.625 114.715 -48.625 114.055 -48.625 113.375 C-49.945 112.715 -51.265 112.055 -52.625 111.375 C-52.625 110.715 -52.625 110.055 -52.625 109.375 C-53.285 109.375 -53.945 109.375 -54.625 109.375 C-65.07084042 92.23570844 -70.81509146 74.47047496 -66.94140625 54.21875 C-63.77794277 41.51239047 -58.30131945 31.14011248 -49.625 21.375 C-49.07070313 20.73820312 -48.51640625 20.10140625 -47.9453125 19.4453125 C-35.26043449 5.78934335 -18.0899122 0.01914276 0 0 Z M-8.93359375 12.43359375 C-21.41219243 13.28971383 -32.55679069 21.32882592 -40.625 30.375 C-41.92019995 32.54120544 -41.92019995 32.54120544 -42.625 34.375 C-43.285 34.375 -43.945 34.375 -44.625 34.375 C-54.91427412 47.66286258 -56.3165429 63.15661889 -54.625 79.375 C-53.72595377 84.07392965 -51.90761916 88.18317167 -49.625 92.375 C-49.16738281 93.2721875 -48.70976562 94.169375 -48.23828125 95.09375 C-44.90778147 101.15252221 -40.67808668 105.70978352 -35.625 110.375 C-35.11324219 110.90222656 -34.60148437 111.42945313 -34.07421875 111.97265625 C-31.56887883 114.39696092 -30.14892208 115.375 -26.625 115.375 C-26.625 116.035 -26.625 116.695 -26.625 117.375 C-16.9894615 121.75954959 -16.9894615 121.75954959 -6.625 123.375 C-5.53703125 123.436875 -4.4490625 123.49875 -3.328125 123.5625 C12.91145542 124.10157321 26.07875067 119.68434628 38.5625 109.1875 C46.64845063 101.60930137 51.06963023 92.82372815 54.375 82.375 C54.73335938 81.446875 55.09171875 80.51875 55.4609375 79.5625 C56.55813922 75.73636066 56.7180821 72.1343641 56.6875 68.1875 C56.68258545 67.43718506 56.6776709 66.68687012 56.67260742 65.91381836 C56.34202012 50.12869844 49.19024948 37.66873902 38.50390625 26.40234375 C26.97525762 15.49686531 12.2521015 11.8298959 -3.22265625 12.22265625 C-5.12569342 12.30786687 -7.02926311 12.38526048 -8.93359375 12.43359375 Z " fill="#5965F8" transform="translate(328.625,107.625)"/>
<path d="M0 0 C0 0.66 0 1.32 0 2 C2.31 2.66 4.62 3.32 7 4 C7 4.66 7 5.32 7 6 C8.3706811 6.51172094 9.74684075 7.00877492 11.125 7.5 C12.27355469 7.91765625 12.27355469 7.91765625 13.4453125 8.34375 C20.87103541 10.25127515 25.3049318 7.64201224 31.6875 4.0625 C33.37795479 3.13498254 35.06932293 2.20912726 36.76171875 1.28515625 C37.8748645 0.66459351 37.8748645 0.66459351 39.01049805 0.03149414 C42.7023089 -1.88259358 45.59296648 -2.11067098 49.6875 -2.0625 C50.68136719 -2.05347656 51.67523438 -2.04445312 52.69921875 -2.03515625 C53.83810547 -2.01775391 53.83810547 -2.01775391 55 -2 C55 -1.34 55 -0.68 55 0 C55.60328125 0.0928125 56.2065625 0.185625 56.828125 0.28125 C60.24669906 1.41257667 61.26259001 3.66207603 63.015625 6.67578125 C65.03293551 11.43887551 64.74316911 15.8695819 63.0625 20.6875 C57.86010583 26.52048741 50.00559766 30.65271655 43 34 C42.34 34 41.68 34 41 34 C41 34.66 41 35.32 41 36 C40.18015625 36.33773437 39.3603125 36.67546875 38.515625 37.0234375 C37.43796875 37.46945312 36.3603125 37.91546875 35.25 38.375 C34.18265625 38.81585938 33.1153125 39.25671875 32.015625 39.7109375 C29.11953076 40.89634665 29.11953076 40.89634665 26.91796875 42.1171875 C21.65255785 44.54077785 15.99586896 44.06115187 10.61376953 42.15478516 C-16.90790307 30.70522736 -16.90790307 30.70522736 -25 21 C-26.59707749 16.20876752 -27.03584479 11.48860637 -25.05859375 6.73828125 C-19.26361592 -3.08956517 -10.30195381 -4.33766476 0 0 Z " fill="#5465FB" transform="translate(237,246)"/>
<path d="M0 0 C4.15422393 2.79958569 7.61888159 6.42526317 9.875 10.9375 C10.68804038 17.36185182 9.76346927 22.68152624 5.875 27.9375 C0.74924392 32.01718341 -3.4272405 33.29557113 -9.84375 33.22265625 C-14.97209134 32.58161358 -18.89058668 28.74948713 -22.125 24.9375 C-24.41541655 20.81475021 -24.82986309 16.563164 -24.125 11.9375 C-22.16732432 6.54276872 -18.69648623 3.24453259 -14.125 -0.0625 C-9.19058151 -1.70730616 -4.86089501 -1.6527043 0 0 Z " fill="#040404" transform="translate(336.125,160.0625)"/>
<path d="M0 0 C5.07876391 3.02827231 8.92199981 6.30506194 10.83984375 12.05859375 C11.20807863 17.67417564 11.07875781 21.25246321 7.83984375 26.05859375 C3.51166006 30.42770589 -0.03190126 33.14295724 -6.34765625 33.43359375 C-11.65873268 33.34709413 -15.2829405 31.66449192 -19.16015625 28.05859375 C-22.65204107 23.53389793 -23.835295 18.83128549 -23.54296875 13.16015625 C-22.4442501 7.1284151 -17.81192086 3.52267378 -13.16015625 0.05859375 C-8.60269471 -1.4605601 -4.44239501 -1.93601663 0 0 Z " fill="#030303" transform="translate(189.16015625,159.94140625)"/>
<path d="M0 0 C4.13830989 0.30096799 6.51847024 0.67898016 10 3 C14.80036942 3.52177928 16.98620952 2.47002491 21 0 C23.96513151 -0.42359022 25.33802076 -0.41925352 27.875 1.1875 C29 3 29 3 28.87890625 5.41015625 C27.70686384 8.86377456 26.22247882 9.52719949 23.0625 11.25 C22.16660156 11.75015625 21.27070313 12.2503125 20.34765625 12.765625 C16.51804245 14.77919898 14.40474015 15.32982354 10 15 C7.078125 13.7578125 7.078125 13.7578125 4.25 12.125 C3.30640625 11.59132813 2.3628125 11.05765625 1.390625 10.5078125 C-1 9 -1 9 -3 7 C-2.67028521 3.70285207 -2.3773161 2.3773161 0 0 Z " fill="#120107" transform="translate(243,265)"/>
</svg>
